<svg xmlns="http://www.w3.org/2000/svg" viewBox="0 0 18 19">
  <path d="M64.5 281.796V279.003C64.5 278.589 64.1647 278.253 63.75 278.253C63.3352 278.253 63 278.589 63 279.003V280.777L59.0977 278.145C57.8235 277.285 56.1765 277.285 54.9023 278.145L49.6523 281.687C48.618 282.385 48 283.546 48 284.795V291.751C48 293.818 49.6823 295.5 51.75 295.5H54C54.4148 295.5 54.75 295.164 54.75 294.75V288.751C54.75 288.338 55.086 288.001 55.5 288.001H58.5C58.914 288.001 59.25 288.338 59.25 288.751V294.75C59.25 295.164 59.5852 295.5 60 295.5H62.25C64.3177 295.5 66 293.818 66 291.751V284.795C66 283.609 65.442 282.502 64.5 281.796ZM64.5 291.751C64.5 292.991 63.4905 294 62.25 294H60.75V288.751C60.75 287.511 59.7405 286.502 58.5 286.502H55.5C54.2595 286.502 53.25 287.511 53.25 288.751V294H51.75C50.5095 294 49.5 292.991 49.5 291.751V284.795C49.5 284.046 49.8705 283.349 50.4915 282.93L55.7415 279.388C56.5065 278.872 57.4935 278.872 58.2577 279.388L63.5077 282.93C64.1287 283.349 64.4993 284.046 64.4993 284.795L64.5 291.751Z" fill="white" transform="translate(-48 -277)"/>
</svg>
