<svg xmlns="http://www.w3.org/2000/svg" xmlns:xlink="http://www.w3.org/1999/xlink" width="2400" zoomAndPan="magnify" viewBox="0 0 1800 1199.999942" height="1600" preserveAspectRatio="xMidYMid meet" version="1.0"><defs><g/><clipPath id="80784ae90b"><path d="M 46 73.046875 L 593 73.046875 L 593 258.296875 L 46 258.296875 Z M 46 73.046875 " clip-rule="nonzero"/></clipPath></defs><g clip-path="url(#80784ae90b)"><path fill="#ffffff" d="M 592.703125 165.640625 C 592.703125 216.773438 551.253906 258.238281 500.105469 258.238281 L 138.988281 258.238281 C 87.84375 258.238281 46.394531 216.773438 46.394531 165.640625 C 46.394531 114.496094 87.84375 73.046875 138.988281 73.046875 L 500.105469 73.046875 C 551.238281 73.046875 592.703125 114.496094 592.703125 165.640625 Z M 592.703125 165.640625 " fill-opacity="1" fill-rule="nonzero"/></g><g fill="#0d0d0d" fill-opacity="1"><g transform="translate(119.249608, 208.412299)"><g><path d="M 40.59375 -47.839844 L 55.660156 -67.386719 L 55.660156 -80.5 L 5.058594 -80.5 L 5.058594 -65.664062 L 36.570312 -65.664062 L 20.699219 -44.964844 L 26.792969 -35.765625 L 30.246094 -35.765625 C 38.523438 -35.765625 43.125 -31.28125 43.125 -24.839844 C 43.125 -18.285156 38.523438 -13.914062 30.246094 -13.914062 C 22.65625 -13.914062 18.167969 -17.25 16.214844 -23.230469 L 2.644531 -15.410156 C 7.246094 -3.910156 18.167969 1.609375 30.246094 1.609375 C 45.425781 1.609375 58.992188 -7.589844 58.992188 -24.839844 C 58.992188 -36.683594 51.058594 -44.734375 40.59375 -47.839844 Z M 40.59375 -47.839844 "/></g></g></g><g fill="#0d0d0d" fill-opacity="1"><g transform="translate(181.922496, 208.412299)"><g><path d="M 39.445312 -80.5 L 7.476562 -80.5 L 7.476562 0 L 39.445312 0 C 61.636719 0 78.199219 -17.59375 78.199219 -40.25 C 78.199219 -62.902344 61.636719 -80.5 39.445312 -80.5 Z M 39.445312 -15.179688 L 23.34375 -15.179688 L 23.34375 -65.320312 L 39.445312 -65.320312 C 53.359375 -65.320312 63.019531 -55.082031 63.019531 -40.25 C 63.019531 -25.414062 53.359375 -15.179688 39.445312 -15.179688 Z M 39.445312 -15.179688 "/></g></g></g><g fill="#0d0d0d" fill-opacity="1"><g transform="translate(263.914737, 208.412299)"><g/></g></g><g fill="#0d0d0d" fill-opacity="1"><g transform="translate(292.663769, 208.412299)"><g><path d="M 60.71875 -80.5 L 1.496094 -80.5 L 1.496094 -65.320312 L 23.113281 -65.320312 L 23.113281 0 L 38.984375 0 L 38.984375 -65.320312 L 60.71875 -65.320312 Z M 60.71875 -80.5 "/></g></g></g><g fill="#0d0d0d" fill-opacity="1"><g transform="translate(344.296898, 208.412299)"><g><path d="M 34.152344 1.609375 C 51.058594 1.609375 64.628906 -11.613281 64.628906 -28.75 C 64.628906 -45.882812 51.058594 -59.109375 34.152344 -59.109375 C 17.25 -59.109375 3.792969 -45.882812 3.792969 -28.75 C 3.792969 -11.613281 17.25 1.609375 34.152344 1.609375 Z M 34.152344 -12.878906 C 25.414062 -12.878906 18.628906 -19.433594 18.628906 -28.75 C 18.628906 -38.0625 25.414062 -44.617188 34.152344 -44.617188 C 43.007812 -44.617188 49.792969 -38.0625 49.792969 -28.75 C 49.792969 -19.433594 43.007812 -12.878906 34.152344 -12.878906 Z M 34.152344 -12.878906 "/></g></g></g><g fill="#0d0d0d" fill-opacity="1"><g transform="translate(412.604593, 208.412299)"><g><path d="M 44.734375 -57.5 L 44.734375 -26.449219 C 44.734375 -16.445312 39.328125 -12.191406 32.085938 -12.191406 C 25.414062 -12.191406 20.699219 -16.214844 20.699219 -24.035156 L 20.699219 -57.5 L 5.863281 -57.5 L 5.863281 -22.195312 C 5.863281 -6.898438 15.410156 1.609375 27.597656 1.609375 C 35.304688 1.609375 41.285156 -1.265625 44.734375 -6.441406 L 44.734375 0 L 59.570312 0 L 59.570312 -57.5 Z M 44.734375 -57.5 "/></g></g></g><g fill="#0d0d0d" fill-opacity="1"><g transform="translate(478.957362, 208.412299)"><g><path d="M 21.621094 -47.609375 L 21.621094 -57.5 L 6.785156 -57.5 L 6.785156 0 L 21.621094 0 L 21.621094 -27.484375 C 21.621094 -39.558594 31.394531 -43.007812 39.097656 -42.089844 L 39.097656 -58.648438 C 31.855469 -58.648438 24.609375 -55.429688 21.621094 -47.609375 Z M 21.621094 -47.609375 "/></g></g></g></svg>