<?xml version="1.0" standalone="no"?>
<!DOCTYPE svg PUBLIC "-//W3C//DTD SVG 20010904//EN"
 "http://www.w3.org/TR/2001/REC-SVG-20010904/DTD/svg10.dtd">
<svg version="1.0" xmlns="http://www.w3.org/2000/svg"
 width="1280.000000pt" height="1600.000000pt" viewBox="0 0 1280.000000 1600.000000"
 preserveAspectRatio="xMidYMid meet">
<metadata>
Created by potrace 1.16, written by Peter Selinger 2001-2019
</metadata>
<g transform="translate(0.000000,1600.000000) scale(0.100000,-0.100000)"
fill="#000000" stroke="none">
<path d="M1127 14243 c-12 -11 -8 -9497 3 -9598 20 -174 81 -322 201 -482 127
-168 344 -305 564 -354 31 -7 272 -14 635 -19 640 -8 617 -6 791 -73 91 -34
124 -53 194 -105 193 -145 306 -316 371 -562 24 -90 24 -320 0 -410 -78 -296
-244 -510 -491 -632 -122 -61 -217 -88 -375 -106 -36 -4 -65 -11 -65 -17 0 -7
1559 -11 4653 -13 l4652 -2 0 6190 0 6190 -5563 0 c-3060 0 -5567 -3 -5570 -7z"/>
</g>
</svg>
