<?xml version="1.0" encoding="UTF-8"?>
<svg xmlns="http://www.w3.org/2000/svg" xmlns:xlink="http://www.w3.org/1999/xlink" width="1728pt" height="2592pt" viewBox="0 0 1728 2592" version="1.1">
<g id="surface1">
<path style="fill:rgb(0%,0%,0%);stroke-width:7;stroke-linecap:round;stroke-linejoin:round;stroke:rgb(0%,0%,0%);stroke-opacity:1;stroke-miterlimit:10;" d="M 12883.984375 12998.014323 L 12883.984375 9144.010417 L 16737.988281 9144.010417 L 16737.988281 12998.014323 L 12883.984375 12998.014323 " transform="matrix(0,-0.12,-0.12,0,1728,2592)"/>
<path style="fill:rgb(0%,0%,0%);stroke-width:7;stroke-linecap:round;stroke-linejoin:round;stroke:rgb(0%,0%,0%);stroke-opacity:1;stroke-miterlimit:10;" d="M 12883.984375 8990.00651 L 12883.984375 5134.99349 L 16737.988281 5134.99349 L 16737.988281 8990.00651 L 12883.984375 8990.00651 " transform="matrix(0,-0.12,-0.12,0,1728,2592)"/>
<path style="fill:rgb(0%,0%,0%);stroke-width:7;stroke-linecap:round;stroke-linejoin:round;stroke:rgb(0%,0%,0%);stroke-opacity:1;stroke-miterlimit:10;" d="M 8875 12998.014323 L 8875 5134.99349 L 12730.013021 5134.99349 L 12730.013021 12998.014323 L 8875 12998.014323 " transform="matrix(0,-0.12,-0.12,0,1728,2592)"/>
<path style="fill:rgb(0%,0%,0%);stroke-width:7;stroke-linecap:round;stroke-linejoin:round;stroke:rgb(0%,0%,0%);stroke-opacity:1;stroke-miterlimit:10;" d="M 8875 1126.985677 L 16737.988281 1126.985677 L 16737.988281 4980.989583 L 8875 4980.989583 L 8875 1126.985677 " transform="matrix(0,-0.12,-0.12,0,1728,2592)"/>
<path style="fill:rgb(0%,0%,0%);stroke-width:7;stroke-linecap:round;stroke-linejoin:round;stroke:rgb(0%,0%,0%);stroke-opacity:1;stroke-miterlimit:10;" d="M 16891.992187 8990.00651 L 16891.992187 1126.985677 L 20747.005208 1126.985677 L 20747.005208 8990.00651 L 16891.992187 8990.00651 " transform="matrix(0,-0.12,-0.12,0,1728,2592)"/>
<path style="fill:rgb(0%,0%,0%);stroke-width:7;stroke-linecap:round;stroke-linejoin:round;stroke:rgb(0%,0%,0%);stroke-opacity:1;stroke-miterlimit:10;" d="M 4866.992188 6984.99349 L 4866.992188 1126.985677 L 8720.996094 1126.985677 L 8720.996094 6984.99349 L 4866.992188 6984.99349 " transform="matrix(0,-0.12,-0.12,0,1728,2592)"/>
<path style="fill:rgb(0%,0%,0%);stroke-width:7;stroke-linecap:round;stroke-linejoin:round;stroke:rgb(0%,0%,0%);stroke-opacity:1;stroke-miterlimit:10;" d="M 858.007812 12998.014323 L 858.007812 1126.985677 L 4712.011719 1126.985677 L 4712.011719 12998.014323 L 858.007812 12998.014323 " transform="matrix(0,-0.12,-0.12,0,1728,2592)"/>
<path style="fill:rgb(0%,0%,0%);stroke-width:7;stroke-linecap:round;stroke-linejoin:round;stroke:rgb(0%,0%,0%);stroke-opacity:1;stroke-miterlimit:10;" d="M 4866.992188 7140.00651 L 4866.992188 12998.014323 L 8720.996094 12998.014323 L 8720.996094 7140.00651 L 4866.992188 7140.00651 " transform="matrix(0,-0.12,-0.12,0,1728,2592)"/>
</g>
</svg>
