<svg width="987" height="479" viewBox="0 0 987 479" fill="none" xmlns="http://www.w3.org/2000/svg">
<rect x="0.5" y="0.5" width="986" height="478" rx="4.5" stroke="#9747FF" stroke-dasharray="10 5"/>
<rect x="20.5" y="28.5" width="360" height="51" rx="25.5" stroke="#E2DDDA"/>
<path d="M45.5827 62.125C40.8743 62.125 37.041 58.2917 37.041 53.5833C37.041 48.875 40.8743 45.0417 45.5827 45.0417C50.291 45.0417 54.1243 48.875 54.1243 53.5833C54.1243 58.2917 50.291 62.125 45.5827 62.125ZM45.5827 46.2917C41.5577 46.2917 38.291 49.5667 38.291 53.5833C38.291 57.6 41.5577 60.875 45.5827 60.875C49.6077 60.875 52.8743 57.6 52.8743 53.5833C52.8743 49.5667 49.6077 46.2917 45.5827 46.2917Z" fill="#2B2A28"/>
<path d="M54.3326 62.9583C54.1742 62.9583 54.0159 62.9 53.8909 62.775L52.2242 61.1083C51.9826 60.8667 51.9826 60.4667 52.2242 60.225C52.4659 59.9833 52.8659 59.9833 53.1076 60.225L54.7742 61.8917C55.0159 62.1333 55.0159 62.5333 54.7742 62.775C54.6492 62.9 54.4909 62.9583 54.3326 62.9583Z" fill="#2B2A28"/>
<path d="M72.5 59.18C71.54 59.18 70.715 58.955 70.025 58.505C69.345 58.045 68.87 57.415 68.6 56.615L69.5 56.09C69.69 56.75 70.04 57.26 70.55 57.62C71.07 57.98 71.725 58.16 72.515 58.16C73.285 58.16 73.89 57.99 74.33 57.65C74.77 57.31 74.99 56.85 74.99 56.27C74.99 55.72 74.79 55.305 74.39 55.025C74 54.745 73.34 54.455 72.41 54.155C71.3 53.785 70.58 53.495 70.25 53.285C69.45 52.805 69.05 52.11 69.05 51.2C69.05 50.31 69.36 49.61 69.98 49.1C70.59 48.58 71.355 48.32 72.275 48.32C73.065 48.32 73.765 48.53 74.375 48.95C74.985 49.36 75.44 49.905 75.74 50.585L74.855 51.08C74.375 49.92 73.515 49.34 72.275 49.34C71.615 49.34 71.085 49.505 70.685 49.835C70.295 50.155 70.1 50.595 70.1 51.155C70.1 51.685 70.28 52.075 70.64 52.325C71.01 52.585 71.605 52.85 72.425 53.12L73.235 53.405C73.405 53.455 73.645 53.545 73.955 53.675C74.295 53.805 74.53 53.915 74.66 54.005C75.19 54.325 75.525 54.62 75.665 54.89C75.915 55.29 76.04 55.74 76.04 56.24C76.04 57.13 75.715 57.845 75.065 58.385C74.415 58.915 73.56 59.18 72.5 59.18ZM81.3041 51.32C82.4241 51.32 83.3191 51.715 83.9891 52.505C84.6791 53.285 85.0241 54.21 85.0241 55.28C85.0241 55.33 85.0141 55.485 84.9941 55.745H78.4091C78.5091 56.495 78.8291 57.095 79.3691 57.545C79.9091 57.995 80.5841 58.22 81.3941 58.22C82.5341 58.22 83.3391 57.795 83.8091 56.945L84.6791 57.455C84.3491 57.995 83.8941 58.42 83.3141 58.73C82.7441 59.03 82.0991 59.18 81.3791 59.18C80.1991 59.18 79.2391 58.81 78.4991 58.07C77.7591 57.33 77.3891 56.39 77.3891 55.25C77.3891 54.12 77.7541 53.185 78.4841 52.445C79.2141 51.695 80.1541 51.32 81.3041 51.32ZM81.3041 52.28C80.5241 52.28 79.8691 52.51 79.3391 52.97C78.8191 53.43 78.5091 54.035 78.4091 54.785H84.0041C83.8941 53.985 83.5891 53.37 83.0891 52.94C82.5691 52.5 81.9741 52.28 81.3041 52.28ZM93.0488 52.97V51.5H94.0388V59H93.0488V57.53C92.3588 58.63 91.3488 59.18 90.0188 59.18C88.9488 59.18 88.0338 58.8 87.2738 58.04C86.5238 57.28 86.1488 56.35 86.1488 55.25C86.1488 54.15 86.5238 53.22 87.2738 52.46C88.0338 51.7 88.9488 51.32 90.0188 51.32C91.3488 51.32 92.3588 51.87 93.0488 52.97ZM87.9938 57.365C88.5638 57.935 89.2638 58.22 90.0938 58.22C90.9238 58.22 91.6238 57.935 92.1938 57.365C92.7638 56.775 93.0488 56.07 93.0488 55.25C93.0488 54.42 92.7638 53.72 92.1938 53.15C91.6238 52.57 90.9238 52.28 90.0938 52.28C89.2638 52.28 88.5638 52.57 87.9938 53.15C87.4238 53.72 87.1388 54.42 87.1388 55.25C87.1388 56.07 87.4238 56.775 87.9938 57.365ZM97.125 51.5V52.745C97.585 51.835 98.375 51.38 99.495 51.38V52.34C98.775 52.34 98.2 52.55 97.77 52.97C97.34 53.38 97.125 54 97.125 54.83V59H96.135V51.5H97.125ZM103.893 59.18C102.763 59.18 101.823 58.805 101.073 58.055C100.323 57.285 99.9477 56.35 99.9477 55.25C99.9477 54.14 100.323 53.21 101.073 52.46C101.823 51.7 102.763 51.32 103.893 51.32C104.633 51.32 105.298 51.5 105.888 51.86C106.478 52.21 106.908 52.685 107.178 53.285L106.368 53.75C106.168 53.3 105.843 52.945 105.393 52.685C104.953 52.415 104.453 52.28 103.893 52.28C103.063 52.28 102.363 52.57 101.793 53.15C101.223 53.72 100.938 54.42 100.938 55.25C100.938 56.07 101.223 56.775 101.793 57.365C102.363 57.935 103.063 58.22 103.893 58.22C104.443 58.22 104.938 58.09 105.378 57.83C105.828 57.57 106.178 57.21 106.428 56.75L107.253 57.23C106.943 57.83 106.488 58.305 105.888 58.655C105.288 59.005 104.623 59.18 103.893 59.18ZM112.184 51.32C113.084 51.32 113.799 51.6 114.329 52.16C114.859 52.71 115.124 53.455 115.124 54.395V59H114.134V54.395C114.134 53.725 113.954 53.205 113.594 52.835C113.244 52.465 112.744 52.28 112.094 52.28C111.344 52.28 110.749 52.515 110.309 52.985C109.879 53.455 109.664 54.15 109.664 55.07V59H108.674V48.5H109.664V52.67C110.224 51.77 111.064 51.32 112.184 51.32ZM124.808 51.32C125.878 51.32 126.788 51.7 127.538 52.46C128.298 53.22 128.678 54.15 128.678 55.25C128.678 56.35 128.298 57.28 127.538 58.04C126.788 58.8 125.878 59.18 124.808 59.18C123.478 59.18 122.468 58.63 121.778 57.53V62H120.788V51.5H121.778V52.97C122.468 51.87 123.478 51.32 124.808 51.32ZM122.633 57.365C123.203 57.935 123.903 58.22 124.733 58.22C125.563 58.22 126.263 57.935 126.833 57.365C127.403 56.775 127.688 56.07 127.688 55.25C127.688 54.42 127.403 53.72 126.833 53.15C126.263 52.57 125.563 52.28 124.733 52.28C123.903 52.28 123.203 52.57 122.633 53.15C122.063 53.72 121.778 54.42 121.778 55.25C121.778 56.07 122.063 56.775 122.633 57.365ZM131.314 59H130.324V48.05H131.314V59ZM139.865 52.97V51.5H140.855V59H139.865V57.53C139.175 58.63 138.165 59.18 136.835 59.18C135.765 59.18 134.85 58.8 134.09 58.04C133.34 57.28 132.965 56.35 132.965 55.25C132.965 54.15 133.34 53.22 134.09 52.46C134.85 51.7 135.765 51.32 136.835 51.32C138.165 51.32 139.175 51.87 139.865 52.97ZM134.81 57.365C135.38 57.935 136.08 58.22 136.91 58.22C137.74 58.22 138.44 57.935 139.01 57.365C139.58 56.775 139.865 56.07 139.865 55.25C139.865 54.42 139.58 53.72 139.01 53.15C138.44 52.57 137.74 52.28 136.91 52.28C136.08 52.28 135.38 52.57 134.81 53.15C134.24 53.72 133.955 54.42 133.955 55.25C133.955 56.07 134.24 56.775 134.81 57.365ZM146.461 51.32C147.361 51.32 148.076 51.6 148.606 52.16C149.136 52.71 149.401 53.455 149.401 54.395V59H148.411V54.395C148.411 53.725 148.231 53.205 147.871 52.835C147.521 52.465 147.021 52.28 146.371 52.28C145.621 52.28 145.026 52.515 144.586 52.985C144.156 53.455 143.941 54.15 143.941 55.07V59H142.951V51.5H143.941V52.67C144.501 51.77 145.341 51.32 146.461 51.32ZM152.096 53.465C152.096 54.045 152.611 54.47 153.641 54.74C153.931 54.81 154.121 54.86 154.211 54.89C154.301 54.91 154.476 54.965 154.736 55.055C155.006 55.135 155.191 55.205 155.291 55.265C155.401 55.325 155.551 55.42 155.741 55.55C155.931 55.67 156.066 55.795 156.146 55.925C156.226 56.045 156.301 56.205 156.371 56.405C156.441 56.595 156.476 56.8 156.476 57.02C156.476 57.66 156.221 58.18 155.711 58.58C155.221 58.98 154.571 59.18 153.761 59.18C153.061 59.18 152.456 59.025 151.946 58.715C151.436 58.395 151.076 57.975 150.866 57.455L151.706 56.96C151.846 57.35 152.096 57.66 152.456 57.89C152.826 58.11 153.261 58.22 153.761 58.22C154.271 58.22 154.686 58.12 155.006 57.92C155.326 57.72 155.486 57.42 155.486 57.02C155.486 56.44 154.971 56.015 153.941 55.745C153.651 55.675 153.461 55.63 153.371 55.61C153.281 55.58 153.101 55.525 152.831 55.445C152.571 55.355 152.386 55.28 152.276 55.22C152.176 55.16 152.031 55.07 151.841 54.95C151.651 54.82 151.516 54.695 151.436 54.575C151.356 54.445 151.281 54.285 151.211 54.095C151.141 53.895 151.106 53.685 151.106 53.465C151.106 52.855 151.346 52.345 151.826 51.935C152.326 51.525 152.941 51.32 153.671 51.32C154.271 51.32 154.801 51.455 155.261 51.725C155.731 51.995 156.076 52.37 156.296 52.85L155.471 53.33C155.191 52.63 154.591 52.28 153.671 52.28C153.221 52.28 152.846 52.385 152.546 52.595C152.246 52.805 152.096 53.095 152.096 53.465Z" fill="#8F8E8C"/>
<path d="M333 38L333 70" stroke="#E2DDDA" stroke-linecap="round"/>
<path d="M362.895 49.2632H358.685" stroke="#FF5C02" stroke-width="1.5" stroke-miterlimit="10" stroke-linecap="round" stroke-linejoin="round"/>
<path d="M350.263 49.2632H347.105" stroke="#FF5C02" stroke-width="1.5" stroke-miterlimit="10" stroke-linecap="round" stroke-linejoin="round"/>
<path d="M353.421 52.421C355.165 52.421 356.578 51.0072 356.578 49.2631C356.578 47.5191 355.165 46.1053 353.421 46.1053C351.677 46.1053 350.263 47.5191 350.263 49.2631C350.263 51.0072 351.677 52.421 353.421 52.421Z" stroke="#FF5C02" stroke-width="1.5" stroke-miterlimit="10" stroke-linecap="round" stroke-linejoin="round"/>
<path d="M362.895 58.7368H359.737" stroke="#FF5C02" stroke-width="1.5" stroke-miterlimit="10" stroke-linecap="round" stroke-linejoin="round"/>
<path d="M351.316 58.7368H347.105" stroke="#FF5C02" stroke-width="1.5" stroke-miterlimit="10" stroke-linecap="round" stroke-linejoin="round"/>
<path d="M356.579 61.8947C358.323 61.8947 359.737 60.4809 359.737 58.7368C359.737 56.9928 358.323 55.5789 356.579 55.5789C354.835 55.5789 353.421 56.9928 353.421 58.7368C353.421 60.4809 354.835 61.8947 356.579 61.8947Z" stroke="#FF5C02" stroke-width="1.5" stroke-miterlimit="10" stroke-linecap="round" stroke-linejoin="round"/>
<rect x="20.5" y="162.5" width="360" height="59" rx="29.5" stroke="#E2DDDA"/>
<path d="M55.5 201.75C49.85 201.75 45.25 197.15 45.25 191.5C45.25 185.85 49.85 181.25 55.5 181.25C61.15 181.25 65.75 185.85 65.75 191.5C65.75 197.15 61.15 201.75 55.5 201.75ZM55.5 182.75C50.67 182.75 46.75 186.68 46.75 191.5C46.75 196.32 50.67 200.25 55.5 200.25C60.33 200.25 64.25 196.32 64.25 191.5C64.25 186.68 60.33 182.75 55.5 182.75Z" fill="#2B2A28"/>
<path d="M65.9995 202.75C65.8095 202.75 65.6195 202.68 65.4695 202.53L63.4695 200.53C63.1795 200.24 63.1795 199.76 63.4695 199.47C63.7595 199.18 64.2395 199.18 64.5295 199.47L66.5295 201.47C66.8195 201.76 66.8195 202.24 66.5295 202.53C66.3795 202.68 66.1895 202.75 65.9995 202.75Z" fill="#2B2A28"/>
<path d="M89.4 198.216C88.248 198.216 87.258 197.946 86.43 197.406C85.614 196.854 85.044 196.098 84.72 195.138L85.8 194.508C86.028 195.3 86.448 195.912 87.06 196.344C87.684 196.776 88.47 196.992 89.418 196.992C90.342 196.992 91.068 196.788 91.596 196.38C92.124 195.972 92.388 195.42 92.388 194.724C92.388 194.064 92.148 193.566 91.668 193.23C91.2 192.894 90.408 192.546 89.292 192.186C87.96 191.742 87.096 191.394 86.7 191.142C85.74 190.566 85.26 189.732 85.26 188.64C85.26 187.572 85.632 186.732 86.376 186.12C87.108 185.496 88.026 185.184 89.13 185.184C90.078 185.184 90.918 185.436 91.65 185.94C92.382 186.432 92.928 187.086 93.288 187.902L92.226 188.496C91.65 187.104 90.618 186.408 89.13 186.408C88.338 186.408 87.702 186.606 87.222 187.002C86.754 187.386 86.52 187.914 86.52 188.586C86.52 189.222 86.736 189.69 87.168 189.99C87.612 190.302 88.326 190.62 89.31 190.944L90.282 191.286C90.486 191.346 90.774 191.454 91.146 191.61C91.554 191.766 91.836 191.898 91.992 192.006C92.628 192.39 93.03 192.744 93.198 193.068C93.498 193.548 93.648 194.088 93.648 194.688C93.648 195.756 93.258 196.614 92.478 197.262C91.698 197.898 90.672 198.216 89.4 198.216ZM99.9649 188.784C101.309 188.784 102.383 189.258 103.187 190.206C104.015 191.142 104.429 192.252 104.429 193.536C104.429 193.596 104.417 193.782 104.393 194.094H96.4909C96.6109 194.994 96.9949 195.714 97.6429 196.254C98.2909 196.794 99.1009 197.064 100.073 197.064C101.441 197.064 102.407 196.554 102.971 195.534L104.015 196.146C103.619 196.794 103.073 197.304 102.377 197.676C101.693 198.036 100.919 198.216 100.055 198.216C98.6389 198.216 97.4869 197.772 96.5989 196.884C95.7109 195.996 95.2669 194.868 95.2669 193.5C95.2669 192.144 95.7049 191.022 96.5809 190.134C97.4569 189.234 98.5849 188.784 99.9649 188.784ZM99.9649 189.936C99.0289 189.936 98.2429 190.212 97.6069 190.764C96.9829 191.316 96.6109 192.042 96.4909 192.942H103.205C103.073 191.982 102.707 191.244 102.107 190.728C101.483 190.2 100.769 189.936 99.9649 189.936ZM114.059 190.764V189H115.247V198H114.059V196.236C113.231 197.556 112.019 198.216 110.423 198.216C109.139 198.216 108.041 197.76 107.129 196.848C106.229 195.936 105.779 194.82 105.779 193.5C105.779 192.18 106.229 191.064 107.129 190.152C108.041 189.24 109.139 188.784 110.423 188.784C112.019 188.784 113.231 189.444 114.059 190.764ZM107.993 196.038C108.677 196.722 109.517 197.064 110.513 197.064C111.509 197.064 112.349 196.722 113.033 196.038C113.717 195.33 114.059 194.484 114.059 193.5C114.059 192.504 113.717 191.664 113.033 190.98C112.349 190.284 111.509 189.936 110.513 189.936C109.517 189.936 108.677 190.284 107.993 190.98C107.309 191.664 106.967 192.504 106.967 193.5C106.967 194.484 107.309 195.33 107.993 196.038ZM118.95 189V190.494C119.502 189.402 120.45 188.856 121.794 188.856V190.008C120.93 190.008 120.24 190.26 119.724 190.764C119.208 191.256 118.95 192 118.95 192.996V198H117.762V189H118.95ZM127.071 198.216C125.715 198.216 124.587 197.766 123.687 196.866C122.787 195.942 122.337 194.82 122.337 193.5C122.337 192.168 122.787 191.052 123.687 190.152C124.587 189.24 125.715 188.784 127.071 188.784C127.959 188.784 128.757 189 129.465 189.432C130.173 189.852 130.689 190.422 131.013 191.142L130.041 191.7C129.801 191.16 129.411 190.734 128.871 190.422C128.343 190.098 127.743 189.936 127.071 189.936C126.075 189.936 125.235 190.284 124.551 190.98C123.867 191.664 123.525 192.504 123.525 193.5C123.525 194.484 123.867 195.33 124.551 196.038C125.235 196.722 126.075 197.064 127.071 197.064C127.731 197.064 128.325 196.908 128.853 196.596C129.393 196.284 129.813 195.852 130.113 195.3L131.103 195.876C130.731 196.596 130.185 197.166 129.465 197.586C128.745 198.006 127.947 198.216 127.071 198.216ZM137.021 188.784C138.101 188.784 138.959 189.12 139.595 189.792C140.231 190.452 140.549 191.346 140.549 192.474V198H139.361V192.474C139.361 191.67 139.145 191.046 138.713 190.602C138.293 190.158 137.693 189.936 136.913 189.936C136.013 189.936 135.299 190.218 134.771 190.782C134.255 191.346 133.997 192.18 133.997 193.284V198H132.809V185.4H133.997V190.404C134.669 189.324 135.677 188.784 137.021 188.784ZM152.17 188.784C153.454 188.784 154.546 189.24 155.446 190.152C156.358 191.064 156.814 192.18 156.814 193.5C156.814 194.82 156.358 195.936 155.446 196.848C154.546 197.76 153.454 198.216 152.17 198.216C150.574 198.216 149.362 197.556 148.534 196.236V201.6H147.346V189H148.534V190.764C149.362 189.444 150.574 188.784 152.17 188.784ZM149.56 196.038C150.244 196.722 151.084 197.064 152.08 197.064C153.076 197.064 153.916 196.722 154.6 196.038C155.284 195.33 155.626 194.484 155.626 193.5C155.626 192.504 155.284 191.664 154.6 190.98C153.916 190.284 153.076 189.936 152.08 189.936C151.084 189.936 150.244 190.284 149.56 190.98C148.876 191.664 148.534 192.504 148.534 193.5C148.534 194.484 148.876 195.33 149.56 196.038ZM159.977 198H158.789V184.86H159.977V198ZM170.238 190.764V189H171.426V198H170.238V196.236C169.41 197.556 168.198 198.216 166.602 198.216C165.318 198.216 164.22 197.76 163.308 196.848C162.408 195.936 161.958 194.82 161.958 193.5C161.958 192.18 162.408 191.064 163.308 190.152C164.22 189.24 165.318 188.784 166.602 188.784C168.198 188.784 169.41 189.444 170.238 190.764ZM164.172 196.038C164.856 196.722 165.696 197.064 166.692 197.064C167.688 197.064 168.528 196.722 169.212 196.038C169.896 195.33 170.238 194.484 170.238 193.5C170.238 192.504 169.896 191.664 169.212 190.98C168.528 190.284 167.688 189.936 166.692 189.936C165.696 189.936 164.856 190.284 164.172 190.98C163.488 191.664 163.146 192.504 163.146 193.5C163.146 194.484 163.488 195.33 164.172 196.038ZM178.154 188.784C179.234 188.784 180.092 189.12 180.728 189.792C181.364 190.452 181.682 191.346 181.682 192.474V198H180.494V192.474C180.494 191.67 180.278 191.046 179.846 190.602C179.426 190.158 178.826 189.936 178.046 189.936C177.146 189.936 176.432 190.218 175.904 190.782C175.388 191.346 175.13 192.18 175.13 193.284V198H173.942V189H175.13V190.404C175.802 189.324 176.81 188.784 178.154 188.784ZM184.915 191.358C184.915 192.054 185.533 192.564 186.769 192.888C187.117 192.972 187.345 193.032 187.453 193.068C187.561 193.092 187.771 193.158 188.083 193.266C188.407 193.362 188.629 193.446 188.749 193.518C188.881 193.59 189.061 193.704 189.289 193.86C189.517 194.004 189.679 194.154 189.775 194.31C189.871 194.454 189.961 194.646 190.045 194.886C190.129 195.114 190.171 195.36 190.171 195.624C190.171 196.392 189.865 197.016 189.253 197.496C188.665 197.976 187.885 198.216 186.913 198.216C186.073 198.216 185.347 198.03 184.735 197.658C184.123 197.274 183.691 196.77 183.439 196.146L184.447 195.552C184.615 196.02 184.915 196.392 185.347 196.668C185.791 196.932 186.313 197.064 186.913 197.064C187.525 197.064 188.023 196.944 188.407 196.704C188.791 196.464 188.983 196.104 188.983 195.624C188.983 194.928 188.365 194.418 187.129 194.094C186.781 194.01 186.553 193.956 186.445 193.932C186.337 193.896 186.121 193.83 185.797 193.734C185.485 193.626 185.263 193.536 185.131 193.464C185.011 193.392 184.837 193.284 184.609 193.14C184.381 192.984 184.219 192.834 184.123 192.69C184.027 192.534 183.937 192.342 183.853 192.114C183.769 191.874 183.727 191.622 183.727 191.358C183.727 190.626 184.015 190.014 184.591 189.522C185.191 189.03 185.929 188.784 186.805 188.784C187.525 188.784 188.161 188.946 188.713 189.27C189.277 189.594 189.691 190.044 189.955 190.62L188.965 191.196C188.629 190.356 187.909 189.936 186.805 189.936C186.265 189.936 185.815 190.062 185.455 190.314C185.095 190.566 184.915 190.914 184.915 191.358Z" fill="#8F8E8C"/>
<path d="M321 176L321 208" stroke="#E2DDDA" stroke-linecap="round"/>
<path d="M354.474 186.316H349.421" stroke="#FF5C02" stroke-width="1.5" stroke-miterlimit="10" stroke-linecap="round" stroke-linejoin="round"/>
<path d="M339.316 186.316H335.526" stroke="#FF5C02" stroke-width="1.5" stroke-miterlimit="10" stroke-linecap="round" stroke-linejoin="round"/>
<path d="M343.105 190.105C345.198 190.105 346.894 188.409 346.894 186.316C346.894 184.223 345.198 182.526 343.105 182.526C341.012 182.526 339.315 184.223 339.315 186.316C339.315 188.409 341.012 190.105 343.105 190.105Z" stroke="#FF5C02" stroke-width="1.5" stroke-miterlimit="10" stroke-linecap="round" stroke-linejoin="round"/>
<path d="M354.474 197.684H350.685" stroke="#FF5C02" stroke-width="1.5" stroke-miterlimit="10" stroke-linecap="round" stroke-linejoin="round"/>
<path d="M340.579 197.684H335.526" stroke="#FF5C02" stroke-width="1.5" stroke-miterlimit="10" stroke-linecap="round" stroke-linejoin="round"/>
<path d="M346.895 201.474C348.988 201.474 350.684 199.777 350.684 197.684C350.684 195.591 348.988 193.895 346.895 193.895C344.802 193.895 343.105 195.591 343.105 197.684C343.105 199.777 344.802 201.474 346.895 201.474Z" stroke="#FF5C02" stroke-width="1.5" stroke-miterlimit="10" stroke-linecap="round" stroke-linejoin="round"/>
<rect x="399.5" y="28.5" width="360" height="51" rx="25.5" stroke="#E2DDDA"/>
<path d="M424.584 62.125C419.875 62.125 416.042 58.2917 416.042 53.5833C416.042 48.875 419.875 45.0417 424.584 45.0417C429.292 45.0417 433.125 48.875 433.125 53.5833C433.125 58.2917 429.292 62.125 424.584 62.125ZM424.584 46.2917C420.559 46.2917 417.292 49.5667 417.292 53.5833C417.292 57.6 420.559 60.875 424.584 60.875C428.609 60.875 431.875 57.6 431.875 53.5833C431.875 49.5667 428.609 46.2917 424.584 46.2917Z" fill="#2B2A28"/>
<path d="M433.334 62.9583C433.175 62.9583 433.017 62.9 432.892 62.775L431.225 61.1083C430.984 60.8667 430.984 60.4667 431.225 60.225C431.467 59.9833 431.867 59.9833 432.109 60.225L433.775 61.8917C434.017 62.1333 434.017 62.5333 433.775 62.775C433.65 62.9 433.492 62.9583 433.334 62.9583Z" fill="#2B2A28"/>
<path d="M451.5 59.18C450.54 59.18 449.715 58.955 449.025 58.505C448.345 58.045 447.87 57.415 447.6 56.615L448.5 56.09C448.69 56.75 449.04 57.26 449.55 57.62C450.07 57.98 450.725 58.16 451.515 58.16C452.285 58.16 452.89 57.99 453.33 57.65C453.77 57.31 453.99 56.85 453.99 56.27C453.99 55.72 453.79 55.305 453.39 55.025C453 54.745 452.34 54.455 451.41 54.155C450.3 53.785 449.58 53.495 449.25 53.285C448.45 52.805 448.05 52.11 448.05 51.2C448.05 50.31 448.36 49.61 448.98 49.1C449.59 48.58 450.355 48.32 451.275 48.32C452.065 48.32 452.765 48.53 453.375 48.95C453.985 49.36 454.44 49.905 454.74 50.585L453.855 51.08C453.375 49.92 452.515 49.34 451.275 49.34C450.615 49.34 450.085 49.505 449.685 49.835C449.295 50.155 449.1 50.595 449.1 51.155C449.1 51.685 449.28 52.075 449.64 52.325C450.01 52.585 450.605 52.85 451.425 53.12L452.235 53.405C452.405 53.455 452.645 53.545 452.955 53.675C453.295 53.805 453.53 53.915 453.66 54.005C454.19 54.325 454.525 54.62 454.665 54.89C454.915 55.29 455.04 55.74 455.04 56.24C455.04 57.13 454.715 57.845 454.065 58.385C453.415 58.915 452.56 59.18 451.5 59.18ZM460.304 51.32C461.424 51.32 462.319 51.715 462.989 52.505C463.679 53.285 464.024 54.21 464.024 55.28C464.024 55.33 464.014 55.485 463.994 55.745H457.409C457.509 56.495 457.829 57.095 458.369 57.545C458.909 57.995 459.584 58.22 460.394 58.22C461.534 58.22 462.339 57.795 462.809 56.945L463.679 57.455C463.349 57.995 462.894 58.42 462.314 58.73C461.744 59.03 461.099 59.18 460.379 59.18C459.199 59.18 458.239 58.81 457.499 58.07C456.759 57.33 456.389 56.39 456.389 55.25C456.389 54.12 456.754 53.185 457.484 52.445C458.214 51.695 459.154 51.32 460.304 51.32ZM460.304 52.28C459.524 52.28 458.869 52.51 458.339 52.97C457.819 53.43 457.509 54.035 457.409 54.785H463.004C462.894 53.985 462.589 53.37 462.089 52.94C461.569 52.5 460.974 52.28 460.304 52.28ZM472.049 52.97V51.5H473.039V59H472.049V57.53C471.359 58.63 470.349 59.18 469.019 59.18C467.949 59.18 467.034 58.8 466.274 58.04C465.524 57.28 465.149 56.35 465.149 55.25C465.149 54.15 465.524 53.22 466.274 52.46C467.034 51.7 467.949 51.32 469.019 51.32C470.349 51.32 471.359 51.87 472.049 52.97ZM466.994 57.365C467.564 57.935 468.264 58.22 469.094 58.22C469.924 58.22 470.624 57.935 471.194 57.365C471.764 56.775 472.049 56.07 472.049 55.25C472.049 54.42 471.764 53.72 471.194 53.15C470.624 52.57 469.924 52.28 469.094 52.28C468.264 52.28 467.564 52.57 466.994 53.15C466.424 53.72 466.139 54.42 466.139 55.25C466.139 56.07 466.424 56.775 466.994 57.365ZM476.125 51.5V52.745C476.585 51.835 477.375 51.38 478.495 51.38V52.34C477.775 52.34 477.2 52.55 476.77 52.97C476.34 53.38 476.125 54 476.125 54.83V59H475.135V51.5H476.125ZM482.893 59.18C481.763 59.18 480.823 58.805 480.073 58.055C479.323 57.285 478.948 56.35 478.948 55.25C478.948 54.14 479.323 53.21 480.073 52.46C480.823 51.7 481.763 51.32 482.893 51.32C483.633 51.32 484.298 51.5 484.888 51.86C485.478 52.21 485.908 52.685 486.178 53.285L485.368 53.75C485.168 53.3 484.843 52.945 484.393 52.685C483.953 52.415 483.453 52.28 482.893 52.28C482.063 52.28 481.363 52.57 480.793 53.15C480.223 53.72 479.938 54.42 479.938 55.25C479.938 56.07 480.223 56.775 480.793 57.365C481.363 57.935 482.063 58.22 482.893 58.22C483.443 58.22 483.938 58.09 484.378 57.83C484.828 57.57 485.178 57.21 485.428 56.75L486.253 57.23C485.943 57.83 485.488 58.305 484.888 58.655C484.288 59.005 483.623 59.18 482.893 59.18ZM491.184 51.32C492.084 51.32 492.799 51.6 493.329 52.16C493.859 52.71 494.124 53.455 494.124 54.395V59H493.134V54.395C493.134 53.725 492.954 53.205 492.594 52.835C492.244 52.465 491.744 52.28 491.094 52.28C490.344 52.28 489.749 52.515 489.309 52.985C488.879 53.455 488.664 54.15 488.664 55.07V59H487.674V48.5H488.664V52.67C489.224 51.77 490.064 51.32 491.184 51.32ZM503.808 51.32C504.878 51.32 505.788 51.7 506.538 52.46C507.298 53.22 507.678 54.15 507.678 55.25C507.678 56.35 507.298 57.28 506.538 58.04C505.788 58.8 504.878 59.18 503.808 59.18C502.478 59.18 501.468 58.63 500.778 57.53V62H499.788V51.5H500.778V52.97C501.468 51.87 502.478 51.32 503.808 51.32ZM501.633 57.365C502.203 57.935 502.903 58.22 503.733 58.22C504.563 58.22 505.263 57.935 505.833 57.365C506.403 56.775 506.688 56.07 506.688 55.25C506.688 54.42 506.403 53.72 505.833 53.15C505.263 52.57 504.563 52.28 503.733 52.28C502.903 52.28 502.203 52.57 501.633 53.15C501.063 53.72 500.778 54.42 500.778 55.25C500.778 56.07 501.063 56.775 501.633 57.365ZM510.314 59H509.324V48.05H510.314V59ZM518.865 52.97V51.5H519.855V59H518.865V57.53C518.175 58.63 517.165 59.18 515.835 59.18C514.765 59.18 513.85 58.8 513.09 58.04C512.34 57.28 511.965 56.35 511.965 55.25C511.965 54.15 512.34 53.22 513.09 52.46C513.85 51.7 514.765 51.32 515.835 51.32C517.165 51.32 518.175 51.87 518.865 52.97ZM513.81 57.365C514.38 57.935 515.08 58.22 515.91 58.22C516.74 58.22 517.44 57.935 518.01 57.365C518.58 56.775 518.865 56.07 518.865 55.25C518.865 54.42 518.58 53.72 518.01 53.15C517.44 52.57 516.74 52.28 515.91 52.28C515.08 52.28 514.38 52.57 513.81 53.15C513.24 53.72 512.955 54.42 512.955 55.25C512.955 56.07 513.24 56.775 513.81 57.365ZM525.461 51.32C526.361 51.32 527.076 51.6 527.606 52.16C528.136 52.71 528.401 53.455 528.401 54.395V59H527.411V54.395C527.411 53.725 527.231 53.205 526.871 52.835C526.521 52.465 526.021 52.28 525.371 52.28C524.621 52.28 524.026 52.515 523.586 52.985C523.156 53.455 522.941 54.15 522.941 55.07V59H521.951V51.5H522.941V52.67C523.501 51.77 524.341 51.32 525.461 51.32ZM531.096 53.465C531.096 54.045 531.611 54.47 532.641 54.74C532.931 54.81 533.121 54.86 533.211 54.89C533.301 54.91 533.476 54.965 533.736 55.055C534.006 55.135 534.191 55.205 534.291 55.265C534.401 55.325 534.551 55.42 534.741 55.55C534.931 55.67 535.066 55.795 535.146 55.925C535.226 56.045 535.301 56.205 535.371 56.405C535.441 56.595 535.476 56.8 535.476 57.02C535.476 57.66 535.221 58.18 534.711 58.58C534.221 58.98 533.571 59.18 532.761 59.18C532.061 59.18 531.456 59.025 530.946 58.715C530.436 58.395 530.076 57.975 529.866 57.455L530.706 56.96C530.846 57.35 531.096 57.66 531.456 57.89C531.826 58.11 532.261 58.22 532.761 58.22C533.271 58.22 533.686 58.12 534.006 57.92C534.326 57.72 534.486 57.42 534.486 57.02C534.486 56.44 533.971 56.015 532.941 55.745C532.651 55.675 532.461 55.63 532.371 55.61C532.281 55.58 532.101 55.525 531.831 55.445C531.571 55.355 531.386 55.28 531.276 55.22C531.176 55.16 531.031 55.07 530.841 54.95C530.651 54.82 530.516 54.695 530.436 54.575C530.356 54.445 530.281 54.285 530.211 54.095C530.141 53.895 530.106 53.685 530.106 53.465C530.106 52.855 530.346 52.345 530.826 51.935C531.326 51.525 531.941 51.32 532.671 51.32C533.271 51.32 533.801 51.455 534.261 51.725C534.731 51.995 535.076 52.37 535.296 52.85L534.471 53.33C534.191 52.63 533.591 52.28 532.671 52.28C532.221 52.28 531.846 52.385 531.546 52.595C531.246 52.805 531.096 53.095 531.096 53.465Z" fill="#8F8E8C"/>
<path d="M712 38L712 70" stroke="#E2DDDA" stroke-linecap="round"/>
<path d="M741.895 49.2632H737.685" stroke="#FF5C02" stroke-width="1.5" stroke-miterlimit="10" stroke-linecap="round" stroke-linejoin="round"/>
<path d="M729.263 49.2632H726.105" stroke="#FF5C02" stroke-width="1.5" stroke-miterlimit="10" stroke-linecap="round" stroke-linejoin="round"/>
<path d="M732.421 52.421C734.165 52.421 735.578 51.0072 735.578 49.2631C735.578 47.5191 734.165 46.1053 732.421 46.1053C730.677 46.1053 729.263 47.5191 729.263 49.2631C729.263 51.0072 730.677 52.421 732.421 52.421Z" stroke="#FF5C02" stroke-width="1.5" stroke-miterlimit="10" stroke-linecap="round" stroke-linejoin="round"/>
<path d="M741.895 58.7368H738.737" stroke="#FF5C02" stroke-width="1.5" stroke-miterlimit="10" stroke-linecap="round" stroke-linejoin="round"/>
<path d="M730.316 58.7368H726.105" stroke="#FF5C02" stroke-width="1.5" stroke-miterlimit="10" stroke-linecap="round" stroke-linejoin="round"/>
<path d="M735.579 61.8947C737.323 61.8947 738.737 60.4809 738.737 58.7368C738.737 56.9928 737.323 55.5789 735.579 55.5789C733.835 55.5789 732.421 56.9928 732.421 58.7368C732.421 60.4809 733.835 61.8947 735.579 61.8947Z" stroke="#FF5C02" stroke-width="1.5" stroke-miterlimit="10" stroke-linecap="round" stroke-linejoin="round"/>
<rect x="399" y="92" width="361" height="48" rx="24" fill="#FF5C02"/>
<path d="M555.045 122.195C554.035 122.195 553.175 121.97 552.465 121.52C551.765 121.06 551.275 120.425 550.995 119.615L552.48 118.745C552.9 119.925 553.77 120.515 555.09 120.515C555.73 120.515 556.215 120.39 556.545 120.14C556.875 119.89 557.04 119.555 557.04 119.135C557.04 118.715 556.865 118.39 556.515 118.16C556.165 117.93 555.545 117.68 554.655 117.41C553.745 117.14 553.01 116.82 552.45 116.45C551.77 115.97 551.43 115.265 551.43 114.335C551.43 113.405 551.76 112.67 552.42 112.13C553.07 111.58 553.865 111.305 554.805 111.305C555.635 111.305 556.365 111.51 556.995 111.92C557.635 112.32 558.125 112.885 558.465 113.615L557.01 114.455C556.57 113.475 555.835 112.985 554.805 112.985C554.305 112.985 553.905 113.105 553.605 113.345C553.305 113.575 553.155 113.89 553.155 114.29C553.155 114.68 553.305 114.99 553.605 115.22C553.905 115.44 554.46 115.675 555.27 115.925C555.77 116.095 556.06 116.195 556.14 116.225C556.27 116.265 556.53 116.365 556.92 116.525C557.24 116.655 557.495 116.795 557.685 116.945C558.465 117.555 558.825 118.275 558.765 119.105C558.765 120.055 558.42 120.81 557.73 121.37C557.06 121.92 556.165 122.195 555.045 122.195ZM562.053 117.515V120.35H566.703V122H560.328V111.5H566.628V113.15H562.053V115.88H566.253V117.515H562.053ZM577.279 122H575.419L574.684 119.885H570.214L569.479 122H567.604L571.414 111.5H573.484L577.279 122ZM572.449 113.525L570.784 118.265H574.114L572.449 113.525ZM586.433 122H584.543L582.323 118.175H580.283V122H578.558V111.5H582.758C583.698 111.5 584.493 111.83 585.143 112.49C585.803 113.13 586.133 113.925 586.133 114.875C586.133 115.545 585.938 116.16 585.548 116.72C585.168 117.27 584.668 117.67 584.048 117.92L586.433 122ZM582.758 113.12H580.283V116.63H582.758C583.218 116.63 583.608 116.46 583.928 116.12C584.248 115.78 584.408 115.365 584.408 114.875C584.408 114.385 584.248 113.97 583.928 113.63C583.608 113.29 583.218 113.12 582.758 113.12ZM592.799 122.195C591.219 122.195 589.909 121.675 588.869 120.635C587.829 119.575 587.309 118.28 587.309 116.75C587.309 115.21 587.829 113.92 588.869 112.88C589.899 111.83 591.209 111.305 592.799 111.305C593.749 111.305 594.624 111.53 595.424 111.98C596.234 112.43 596.864 113.04 597.314 113.81L595.814 114.68C595.534 114.16 595.124 113.75 594.584 113.45C594.054 113.14 593.459 112.985 592.799 112.985C591.689 112.985 590.779 113.34 590.069 114.05C589.379 114.75 589.034 115.65 589.034 116.75C589.034 117.85 589.379 118.75 590.069 119.45C590.779 120.16 591.689 120.515 592.799 120.515C593.459 120.515 594.059 120.365 594.599 120.065C595.139 119.755 595.544 119.34 595.814 118.82L597.314 119.675C596.884 120.435 596.259 121.05 595.439 121.52C594.649 121.97 593.769 122.195 592.799 122.195ZM605.122 115.805V111.5H606.847V122H605.122V117.455H600.622V122H598.897V111.5H600.622V115.805H605.122Z" fill="white"/>
<rect x="405.5" y="162.5" width="411" height="59" rx="29.5" stroke="#E2DDDA"/>
<path d="M440.5 201.75C434.85 201.75 430.25 197.15 430.25 191.5C430.25 185.85 434.85 181.25 440.5 181.25C446.15 181.25 450.75 185.85 450.75 191.5C450.75 197.15 446.15 201.75 440.5 201.75ZM440.5 182.75C435.67 182.75 431.75 186.68 431.75 191.5C431.75 196.32 435.67 200.25 440.5 200.25C445.33 200.25 449.25 196.32 449.25 191.5C449.25 186.68 445.33 182.75 440.5 182.75Z" fill="#2B2A28"/>
<path d="M451 202.75C450.81 202.75 450.62 202.68 450.47 202.53L448.47 200.53C448.18 200.24 448.18 199.76 448.47 199.47C448.76 199.18 449.24 199.18 449.53 199.47L451.53 201.47C451.82 201.76 451.82 202.24 451.53 202.53C451.38 202.68 451.19 202.75 451 202.75Z" fill="#2B2A28"/>
<path d="M474.4 198.216C473.248 198.216 472.258 197.946 471.43 197.406C470.614 196.854 470.044 196.098 469.72 195.138L470.8 194.508C471.028 195.3 471.448 195.912 472.06 196.344C472.684 196.776 473.47 196.992 474.418 196.992C475.342 196.992 476.068 196.788 476.596 196.38C477.124 195.972 477.388 195.42 477.388 194.724C477.388 194.064 477.148 193.566 476.668 193.23C476.2 192.894 475.408 192.546 474.292 192.186C472.96 191.742 472.096 191.394 471.7 191.142C470.74 190.566 470.26 189.732 470.26 188.64C470.26 187.572 470.632 186.732 471.376 186.12C472.108 185.496 473.026 185.184 474.13 185.184C475.078 185.184 475.918 185.436 476.65 185.94C477.382 186.432 477.928 187.086 478.288 187.902L477.226 188.496C476.65 187.104 475.618 186.408 474.13 186.408C473.338 186.408 472.702 186.606 472.222 187.002C471.754 187.386 471.52 187.914 471.52 188.586C471.52 189.222 471.736 189.69 472.168 189.99C472.612 190.302 473.326 190.62 474.31 190.944L475.282 191.286C475.486 191.346 475.774 191.454 476.146 191.61C476.554 191.766 476.836 191.898 476.992 192.006C477.628 192.39 478.03 192.744 478.198 193.068C478.498 193.548 478.648 194.088 478.648 194.688C478.648 195.756 478.258 196.614 477.478 197.262C476.698 197.898 475.672 198.216 474.4 198.216ZM484.965 188.784C486.309 188.784 487.383 189.258 488.187 190.206C489.015 191.142 489.429 192.252 489.429 193.536C489.429 193.596 489.417 193.782 489.393 194.094H481.491C481.611 194.994 481.995 195.714 482.643 196.254C483.291 196.794 484.101 197.064 485.073 197.064C486.441 197.064 487.407 196.554 487.971 195.534L489.015 196.146C488.619 196.794 488.073 197.304 487.377 197.676C486.693 198.036 485.919 198.216 485.055 198.216C483.639 198.216 482.487 197.772 481.599 196.884C480.711 195.996 480.267 194.868 480.267 193.5C480.267 192.144 480.705 191.022 481.581 190.134C482.457 189.234 483.585 188.784 484.965 188.784ZM484.965 189.936C484.029 189.936 483.243 190.212 482.607 190.764C481.983 191.316 481.611 192.042 481.491 192.942H488.205C488.073 191.982 487.707 191.244 487.107 190.728C486.483 190.2 485.769 189.936 484.965 189.936ZM499.059 190.764V189H500.247V198H499.059V196.236C498.231 197.556 497.019 198.216 495.423 198.216C494.139 198.216 493.041 197.76 492.129 196.848C491.229 195.936 490.779 194.82 490.779 193.5C490.779 192.18 491.229 191.064 492.129 190.152C493.041 189.24 494.139 188.784 495.423 188.784C497.019 188.784 498.231 189.444 499.059 190.764ZM492.993 196.038C493.677 196.722 494.517 197.064 495.513 197.064C496.509 197.064 497.349 196.722 498.033 196.038C498.717 195.33 499.059 194.484 499.059 193.5C499.059 192.504 498.717 191.664 498.033 190.98C497.349 190.284 496.509 189.936 495.513 189.936C494.517 189.936 493.677 190.284 492.993 190.98C492.309 191.664 491.967 192.504 491.967 193.5C491.967 194.484 492.309 195.33 492.993 196.038ZM503.95 189V190.494C504.502 189.402 505.45 188.856 506.794 188.856V190.008C505.93 190.008 505.24 190.26 504.724 190.764C504.208 191.256 503.95 192 503.95 192.996V198H502.762V189H503.95ZM512.071 198.216C510.715 198.216 509.587 197.766 508.687 196.866C507.787 195.942 507.337 194.82 507.337 193.5C507.337 192.168 507.787 191.052 508.687 190.152C509.587 189.24 510.715 188.784 512.071 188.784C512.959 188.784 513.757 189 514.465 189.432C515.173 189.852 515.689 190.422 516.013 191.142L515.041 191.7C514.801 191.16 514.411 190.734 513.871 190.422C513.343 190.098 512.743 189.936 512.071 189.936C511.075 189.936 510.235 190.284 509.551 190.98C508.867 191.664 508.525 192.504 508.525 193.5C508.525 194.484 508.867 195.33 509.551 196.038C510.235 196.722 511.075 197.064 512.071 197.064C512.731 197.064 513.325 196.908 513.853 196.596C514.393 196.284 514.813 195.852 515.113 195.3L516.103 195.876C515.731 196.596 515.185 197.166 514.465 197.586C513.745 198.006 512.947 198.216 512.071 198.216ZM522.021 188.784C523.101 188.784 523.959 189.12 524.595 189.792C525.231 190.452 525.549 191.346 525.549 192.474V198H524.361V192.474C524.361 191.67 524.145 191.046 523.713 190.602C523.293 190.158 522.693 189.936 521.913 189.936C521.013 189.936 520.299 190.218 519.771 190.782C519.255 191.346 518.997 192.18 518.997 193.284V198H517.809V185.4H518.997V190.404C519.669 189.324 520.677 188.784 522.021 188.784ZM537.17 188.784C538.454 188.784 539.546 189.24 540.446 190.152C541.358 191.064 541.814 192.18 541.814 193.5C541.814 194.82 541.358 195.936 540.446 196.848C539.546 197.76 538.454 198.216 537.17 198.216C535.574 198.216 534.362 197.556 533.534 196.236V201.6H532.346V189H533.534V190.764C534.362 189.444 535.574 188.784 537.17 188.784ZM534.56 196.038C535.244 196.722 536.084 197.064 537.08 197.064C538.076 197.064 538.916 196.722 539.6 196.038C540.284 195.33 540.626 194.484 540.626 193.5C540.626 192.504 540.284 191.664 539.6 190.98C538.916 190.284 538.076 189.936 537.08 189.936C536.084 189.936 535.244 190.284 534.56 190.98C533.876 191.664 533.534 192.504 533.534 193.5C533.534 194.484 533.876 195.33 534.56 196.038ZM544.977 198H543.789V184.86H544.977V198ZM555.238 190.764V189H556.426V198H555.238V196.236C554.41 197.556 553.198 198.216 551.602 198.216C550.318 198.216 549.22 197.76 548.308 196.848C547.408 195.936 546.958 194.82 546.958 193.5C546.958 192.18 547.408 191.064 548.308 190.152C549.22 189.24 550.318 188.784 551.602 188.784C553.198 188.784 554.41 189.444 555.238 190.764ZM549.172 196.038C549.856 196.722 550.696 197.064 551.692 197.064C552.688 197.064 553.528 196.722 554.212 196.038C554.896 195.33 555.238 194.484 555.238 193.5C555.238 192.504 554.896 191.664 554.212 190.98C553.528 190.284 552.688 189.936 551.692 189.936C550.696 189.936 549.856 190.284 549.172 190.98C548.488 191.664 548.146 192.504 548.146 193.5C548.146 194.484 548.488 195.33 549.172 196.038ZM563.154 188.784C564.234 188.784 565.092 189.12 565.728 189.792C566.364 190.452 566.682 191.346 566.682 192.474V198H565.494V192.474C565.494 191.67 565.278 191.046 564.846 190.602C564.426 190.158 563.826 189.936 563.046 189.936C562.146 189.936 561.432 190.218 560.904 190.782C560.388 191.346 560.13 192.18 560.13 193.284V198H558.942V189H560.13V190.404C560.802 189.324 561.81 188.784 563.154 188.784ZM569.915 191.358C569.915 192.054 570.533 192.564 571.769 192.888C572.117 192.972 572.345 193.032 572.453 193.068C572.561 193.092 572.771 193.158 573.083 193.266C573.407 193.362 573.629 193.446 573.749 193.518C573.881 193.59 574.061 193.704 574.289 193.86C574.517 194.004 574.679 194.154 574.775 194.31C574.871 194.454 574.961 194.646 575.045 194.886C575.129 195.114 575.171 195.36 575.171 195.624C575.171 196.392 574.865 197.016 574.253 197.496C573.665 197.976 572.885 198.216 571.913 198.216C571.073 198.216 570.347 198.03 569.735 197.658C569.123 197.274 568.691 196.77 568.439 196.146L569.447 195.552C569.615 196.02 569.915 196.392 570.347 196.668C570.791 196.932 571.313 197.064 571.913 197.064C572.525 197.064 573.023 196.944 573.407 196.704C573.791 196.464 573.983 196.104 573.983 195.624C573.983 194.928 573.365 194.418 572.129 194.094C571.781 194.01 571.553 193.956 571.445 193.932C571.337 193.896 571.121 193.83 570.797 193.734C570.485 193.626 570.263 193.536 570.131 193.464C570.011 193.392 569.837 193.284 569.609 193.14C569.381 192.984 569.219 192.834 569.123 192.69C569.027 192.534 568.937 192.342 568.853 192.114C568.769 191.874 568.727 191.622 568.727 191.358C568.727 190.626 569.015 190.014 569.591 189.522C570.191 189.03 570.929 188.784 571.805 188.784C572.525 188.784 573.161 188.946 573.713 189.27C574.277 189.594 574.691 190.044 574.955 190.62L573.965 191.196C573.629 190.356 572.909 189.936 571.805 189.936C571.265 189.936 570.815 190.062 570.455 190.314C570.095 190.566 569.915 190.914 569.915 191.358Z" fill="#8F8E8C"/>
<path d="M757 176L757 208" stroke="#E2DDDA" stroke-linecap="round"/>
<path d="M790.474 186.316H785.421" stroke="#FF5C02" stroke-width="1.5" stroke-miterlimit="10" stroke-linecap="round" stroke-linejoin="round"/>
<path d="M775.316 186.316H771.526" stroke="#FF5C02" stroke-width="1.5" stroke-miterlimit="10" stroke-linecap="round" stroke-linejoin="round"/>
<path d="M779.105 190.105C781.198 190.105 782.894 188.409 782.894 186.316C782.894 184.223 781.198 182.526 779.105 182.526C777.012 182.526 775.315 184.223 775.315 186.316C775.315 188.409 777.012 190.105 779.105 190.105Z" stroke="#FF5C02" stroke-width="1.5" stroke-miterlimit="10" stroke-linecap="round" stroke-linejoin="round"/>
<path d="M790.474 197.684H786.685" stroke="#FF5C02" stroke-width="1.5" stroke-miterlimit="10" stroke-linecap="round" stroke-linejoin="round"/>
<path d="M776.579 197.684H771.526" stroke="#FF5C02" stroke-width="1.5" stroke-miterlimit="10" stroke-linecap="round" stroke-linejoin="round"/>
<path d="M782.895 201.474C784.988 201.474 786.684 199.777 786.684 197.684C786.684 195.591 784.988 193.895 782.895 193.895C780.802 193.895 779.105 195.591 779.105 197.684C779.105 199.777 780.802 201.474 782.895 201.474Z" stroke="#FF5C02" stroke-width="1.5" stroke-miterlimit="10" stroke-linecap="round" stroke-linejoin="round"/>
<rect x="829" y="162" width="138" height="60" rx="30" fill="#FF5C02"/>
<path d="M873.545 198.195C872.535 198.195 871.675 197.97 870.965 197.52C870.265 197.06 869.775 196.425 869.495 195.615L870.98 194.745C871.4 195.925 872.27 196.515 873.59 196.515C874.23 196.515 874.715 196.39 875.045 196.14C875.375 195.89 875.54 195.555 875.54 195.135C875.54 194.715 875.365 194.39 875.015 194.16C874.665 193.93 874.045 193.68 873.155 193.41C872.245 193.14 871.51 192.82 870.95 192.45C870.27 191.97 869.93 191.265 869.93 190.335C869.93 189.405 870.26 188.67 870.92 188.13C871.57 187.58 872.365 187.305 873.305 187.305C874.135 187.305 874.865 187.51 875.495 187.92C876.135 188.32 876.625 188.885 876.965 189.615L875.51 190.455C875.07 189.475 874.335 188.985 873.305 188.985C872.805 188.985 872.405 189.105 872.105 189.345C871.805 189.575 871.655 189.89 871.655 190.29C871.655 190.68 871.805 190.99 872.105 191.22C872.405 191.44 872.96 191.675 873.77 191.925C874.27 192.095 874.56 192.195 874.64 192.225C874.77 192.265 875.03 192.365 875.42 192.525C875.74 192.655 875.995 192.795 876.185 192.945C876.965 193.555 877.325 194.275 877.265 195.105C877.265 196.055 876.92 196.81 876.23 197.37C875.56 197.92 874.665 198.195 873.545 198.195ZM880.553 193.515V196.35H885.203V198H878.828V187.5H885.128V189.15H880.553V191.88H884.753V193.515H880.553ZM895.779 198H893.919L893.184 195.885H888.714L887.979 198H886.104L889.914 187.5H891.984L895.779 198ZM890.949 189.525L889.284 194.265H892.614L890.949 189.525ZM904.933 198H903.043L900.823 194.175H898.783V198H897.058V187.5H901.258C902.198 187.5 902.993 187.83 903.643 188.49C904.303 189.13 904.633 189.925 904.633 190.875C904.633 191.545 904.438 192.16 904.048 192.72C903.668 193.27 903.168 193.67 902.548 193.92L904.933 198ZM901.258 189.12H898.783V192.63H901.258C901.718 192.63 902.108 192.46 902.428 192.12C902.748 191.78 902.908 191.365 902.908 190.875C902.908 190.385 902.748 189.97 902.428 189.63C902.108 189.29 901.718 189.12 901.258 189.12ZM911.299 198.195C909.719 198.195 908.409 197.675 907.369 196.635C906.329 195.575 905.809 194.28 905.809 192.75C905.809 191.21 906.329 189.92 907.369 188.88C908.399 187.83 909.709 187.305 911.299 187.305C912.249 187.305 913.124 187.53 913.924 187.98C914.734 188.43 915.364 189.04 915.814 189.81L914.314 190.68C914.034 190.16 913.624 189.75 913.084 189.45C912.554 189.14 911.959 188.985 911.299 188.985C910.189 188.985 909.279 189.34 908.569 190.05C907.879 190.75 907.534 191.65 907.534 192.75C907.534 193.85 907.879 194.75 908.569 195.45C909.279 196.16 910.189 196.515 911.299 196.515C911.959 196.515 912.559 196.365 913.099 196.065C913.639 195.755 914.044 195.34 914.314 194.82L915.814 195.675C915.384 196.435 914.759 197.05 913.939 197.52C913.149 197.97 912.269 198.195 911.299 198.195ZM923.622 191.805V187.5H925.347V198H923.622V193.455H919.122V198H917.397V187.5H919.122V191.805H923.622Z" fill="white"/>
</svg>
