<svg xmlns="http://www.w3.org/2000/svg" xmlns:xlink="http://www.w3.org/1999/xlink" width="1000" zoomAndPan="magnify" viewBox="0 0 750 749.999995" height="1000" preserveAspectRatio="xMidYMid meet" version="1.0"><defs><clipPath id="ae701f8267"><path d="M 23.929688 23.476562 L 731.179688 23.476562 L 731.179688 730.726562 L 23.929688 730.726562 Z M 23.929688 23.476562 " clip-rule="nonzero"/></clipPath></defs><g clip-path="url(#ae701f8267)"><path fill="#ffffff" d="M -917.964844 -5672.050781 C -917.964844 -5701.863281 -893.796875 -5726.03125 -863.980469 -5726.03125 L 1619.234375 -5726.03125 C 1649.058594 -5726.03125 1673.214844 -5701.863281 1673.214844 -5672.050781 L 1673.214844 21830.519531 C 1673.214844 21860.210938 1649.058594 21884.5 1619.234375 21884.5 L -863.980469 21884.5 C -893.796875 21884.5 -917.964844 21860.210938 -917.964844 21830.519531 Z M -917.964844 -5672.050781 " fill-opacity="1" fill-rule="nonzero"/><path fill="#ff5c02" d="M -863.980469 -5726.03125 L -863.980469 -5699.039062 L 1619.234375 -5699.039062 L 1619.234375 -5753.019531 L -863.980469 -5753.019531 Z M 1673.214844 -5672.050781 L 1646.226562 -5672.050781 L 1646.226562 21830.519531 L 1700.207031 21830.519531 L 1700.207031 -5672.050781 Z M 1619.234375 21884.5 L 1619.234375 21857.511719 L -863.980469 21857.511719 L -863.980469 21911.492188 L 1619.234375 21911.492188 Z M -917.964844 21830.519531 L -890.972656 21830.519531 L -890.972656 -5672.050781 L -944.957031 -5672.050781 L -944.957031 21830.519531 Z M -863.980469 21884.5 L -863.980469 21857.511719 C -878.890625 21857.511719 -890.972656 21845.367188 -890.972656 21830.519531 L -944.957031 21830.519531 C -944.957031 21875.324219 -908.703125 21911.492188 -863.980469 21911.492188 Z M 1673.214844 21830.519531 L 1646.226562 21830.519531 C 1646.226562 21845.367188 1634.132812 21857.511719 1619.234375 21857.511719 L 1619.234375 21911.492188 C 1663.957031 21911.492188 1700.207031 21875.324219 1700.207031 21830.519531 Z M 1619.234375 -5726.03125 L 1619.234375 -5699.039062 C 1634.132812 -5699.039062 1646.226562 -5686.957031 1646.226562 -5672.050781 L 1700.207031 -5672.050781 C 1700.207031 -5716.769531 1663.957031 -5753.019531 1619.234375 -5753.019531 Z M -863.980469 -5726.03125 L -863.980469 -5753.019531 C -908.703125 -5753.019531 -944.957031 -5716.769531 -944.957031 -5672.050781 L -890.972656 -5672.050781 C -890.972656 -5686.957031 -878.890625 -5699.039062 -863.980469 -5699.039062 Z M -863.980469 -5726.03125 " fill-opacity="1" fill-rule="nonzero"/></g><path fill="#2b2a28" d="M 364.128906 636.808594 C 211.628906 636.808594 87.46875 512.652344 87.46875 360.160156 C 87.46875 207.671875 211.628906 83.515625 364.128906 83.515625 C 516.632812 83.515625 640.792969 207.671875 640.792969 360.160156 C 640.792969 512.652344 516.632812 636.808594 364.128906 636.808594 Z M 364.128906 124 C 233.761719 124 127.953125 230.070312 127.953125 360.160156 C 127.953125 490.253906 233.761719 596.324219 364.128906 596.324219 C 494.5 596.324219 600.304688 490.253906 600.304688 360.160156 C 600.304688 230.070312 494.5 124 364.128906 124 Z M 364.128906 124 " fill-opacity="1" fill-rule="nonzero"/><path fill="#2b2a28" d="M 647.539062 663.796875 C 642.414062 663.796875 637.285156 661.90625 633.234375 657.859375 L 579.253906 603.878906 C 571.425781 596.050781 571.425781 583.097656 579.253906 575.269531 C 587.078125 567.441406 600.035156 567.441406 607.863281 575.269531 L 661.847656 629.25 C 669.671875 637.078125 669.671875 650.03125 661.847656 657.859375 C 657.796875 661.90625 652.667969 663.796875 647.539062 663.796875 Z M 647.539062 663.796875 " fill-opacity="1" fill-rule="nonzero"/></svg>