<svg xmlns="http://www.w3.org/2000/svg" xmlns:xlink="http://www.w3.org/1999/xlink" width="393" zoomAndPan="magnify" viewBox="0 0 294.75 388.499989" height="518" preserveAspectRatio="xMidYMid meet" version="1.0"><defs><clipPath id="0139478b03"><path d="M 99.613281 305.5625 L 151.410156 305.5625 L 151.410156 357.363281 L 99.613281 357.363281 Z M 99.613281 305.5625 " clip-rule="nonzero"/></clipPath><clipPath id="388d233f06"><path d="M 151.410156 357.363281 C 137.769531 357.363281 124.429688 351.839844 114.785156 342.191406 C 105.136719 332.546875 99.613281 319.207031 99.613281 305.5625 L 126.039062 305.5625 C 126.039062 312.246094 128.746094 318.78125 133.46875 323.503906 C 138.195312 328.230469 144.730469 330.9375 151.410156 330.9375 Z M 151.410156 357.363281 " clip-rule="nonzero"/></clipPath><clipPath id="d5c9a4085e"><path d="M 0.613281 0.5625 L 52.410156 0.5625 L 52.410156 52.363281 L 0.613281 52.363281 Z M 0.613281 0.5625 " clip-rule="nonzero"/></clipPath><clipPath id="17ee489b48"><path d="M 52.410156 52.363281 C 38.769531 52.363281 25.429688 46.839844 15.785156 37.191406 C 6.136719 27.546875 0.613281 14.207031 0.613281 0.5625 L 27.039062 0.5625 C 27.039062 7.246094 29.746094 13.78125 34.46875 18.503906 C 39.195312 23.230469 45.730469 25.9375 52.410156 25.9375 Z M 52.410156 52.363281 " clip-rule="nonzero"/></clipPath><clipPath id="7a4cfd6093"><rect x="0" width="53" y="0" height="53"/></clipPath><clipPath id="1c2600f601"><path d="M 268.398438 305.5625 L 294.4375 305.5625 L 294.4375 357.363281 L 268.398438 357.363281 Z M 268.398438 305.5625 " clip-rule="nonzero"/></clipPath><clipPath id="6eb5043fff"><path d="M 320.199219 305.5625 C 320.199219 319.207031 314.671875 332.546875 305.027344 342.191406 C 295.378906 351.839844 282.039062 357.363281 268.398438 357.363281 L 268.398438 330.9375 C 275.078125 330.9375 281.613281 328.230469 286.339844 323.503906 C 291.0625 318.78125 293.769531 312.246094 293.769531 305.5625 Z M 320.199219 305.5625 " clip-rule="nonzero"/></clipPath><clipPath id="32c1d01d40"><path d="M 0.398438 0.5625 L 26.4375 0.5625 L 26.4375 52.363281 L 0.398438 52.363281 Z M 0.398438 0.5625 " clip-rule="nonzero"/></clipPath><clipPath id="b610108011"><path d="M 52.199219 0.5625 C 52.199219 14.207031 46.671875 27.546875 37.027344 37.191406 C 27.378906 46.839844 14.039062 52.363281 0.398438 52.363281 L 0.398438 25.9375 C 7.078125 25.9375 13.613281 23.230469 18.339844 18.503906 C 23.0625 13.78125 25.769531 7.246094 25.769531 0.5625 Z M 52.199219 0.5625 " clip-rule="nonzero"/></clipPath><clipPath id="eaf1c117c8"><rect x="0" width="27" y="0" height="53"/></clipPath><clipPath id="7fe821b7cc"><path d="M 100.429688 268.769531 L 126.257812 268.769531 L 126.257812 294.601562 L 100.429688 294.601562 Z M 100.429688 268.769531 " clip-rule="nonzero"/></clipPath><clipPath id="9d2af2fb4f"><path d="M 100.429688 268.769531 C 107.234375 268.769531 113.882812 271.527344 118.695312 276.335938 C 123.503906 281.144531 126.257812 287.796875 126.257812 294.601562 L 113.082031 294.601562 C 113.082031 291.269531 111.734375 288.007812 109.375 285.652344 C 107.019531 283.296875 103.761719 281.949219 100.429688 281.949219 Z M 100.429688 268.769531 " clip-rule="nonzero"/></clipPath><clipPath id="57ce5c1299"><path d="M 0.429688 0.769531 L 26.257812 0.769531 L 26.257812 26.601562 L 0.429688 26.601562 Z M 0.429688 0.769531 " clip-rule="nonzero"/></clipPath><clipPath id="12b6263774"><path d="M 0.429688 0.769531 C 7.234375 0.769531 13.882812 3.527344 18.695312 8.335938 C 23.503906 13.144531 26.257812 19.796875 26.257812 26.601562 L 13.082031 26.601562 C 13.082031 23.269531 11.734375 20.007812 9.375 17.652344 C 7.019531 15.296875 3.761719 13.949219 0.429688 13.949219 Z M 0.429688 0.769531 " clip-rule="nonzero"/></clipPath><clipPath id="2036595147"><rect x="0" width="27" y="0" height="27"/></clipPath><clipPath id="98cd37cc55"><path d="M 0.0664062 268.769531 L 101.128906 268.769531 L 101.128906 388 L 0.0664062 388 Z M 0.0664062 268.769531 " clip-rule="nonzero"/></clipPath><clipPath id="8083287e33"><path d="M 0.0664062 0.769531 L 101.128906 0.769531 L 101.128906 120 L 0.0664062 120 Z M 0.0664062 0.769531 " clip-rule="nonzero"/></clipPath><clipPath id="cce2174a8b"><rect x="0" width="102" y="0" height="120"/></clipPath><clipPath id="c4a661a029"><path d="M 0.0664062 330.785156 L 294.4375 330.785156 L 294.4375 388 L 0.0664062 388 Z M 0.0664062 330.785156 " clip-rule="nonzero"/></clipPath><clipPath id="0425a1c56e"><path d="M 0.0664062 0.785156 L 294.4375 0.785156 L 294.4375 58 L 0.0664062 58 Z M 0.0664062 0.785156 " clip-rule="nonzero"/></clipPath><clipPath id="87471bd514"><rect x="0" width="295" y="0" height="58"/></clipPath><clipPath id="058de49cb6"><path d="M 100.371094 279.230469 L 120.246094 279.230469 L 120.246094 312.75 L 100.371094 312.75 Z M 100.371094 279.230469 " clip-rule="nonzero"/></clipPath><clipPath id="730841f54d"><path d="M 0.371094 0.230469 L 20.246094 0.230469 L 20.246094 33.75 L 0.371094 33.75 Z M 0.371094 0.230469 " clip-rule="nonzero"/></clipPath><clipPath id="e03a365160"><rect x="0" width="21" y="0" height="34"/></clipPath><clipPath id="096985c8f1"><path d="M 100.371094 293.839844 L 126.269531 293.839844 L 126.269531 339.457031 L 100.371094 339.457031 Z M 100.371094 293.839844 " clip-rule="nonzero"/></clipPath><clipPath id="d82e4f70c5"><path d="M 0.371094 0.839844 L 26.269531 0.839844 L 26.269531 46.457031 L 0.371094 46.457031 Z M 0.371094 0.839844 " clip-rule="nonzero"/></clipPath><clipPath id="dd00fe9b4f"><rect x="0" width="27" y="0" height="47"/></clipPath></defs><g clip-path="url(#0139478b03)"><g clip-path="url(#388d233f06)"><g transform="matrix(1, 0, 0, 1, 99, 305)"><g clip-path="url(#7a4cfd6093)"><g clip-path="url(#d5c9a4085e)"><g clip-path="url(#17ee489b48)"><path fill="#2b2a28" d="M 0.613281 52.363281 L 0.613281 0.5625 L 52.410156 0.5625 L 52.410156 52.363281 Z M 0.613281 52.363281 " fill-opacity="1" fill-rule="nonzero"/></g></g></g></g></g></g><g clip-path="url(#1c2600f601)"><g clip-path="url(#6eb5043fff)"><g transform="matrix(1, 0, 0, 1, 268, 305)"><g clip-path="url(#eaf1c117c8)"><g clip-path="url(#32c1d01d40)"><g clip-path="url(#b610108011)"><path fill="#2b2a28" d="M 52.199219 52.363281 L 0.398438 52.363281 L 0.398438 0.5625 L 52.199219 0.5625 Z M 52.199219 52.363281 " fill-opacity="1" fill-rule="nonzero"/></g></g></g></g></g></g><g clip-path="url(#7fe821b7cc)"><g clip-path="url(#9d2af2fb4f)"><g transform="matrix(1, 0, 0, 1, 100, 268)"><g clip-path="url(#2036595147)"><g clip-path="url(#57ce5c1299)"><g clip-path="url(#12b6263774)"><path fill="#2b2a28" d="M 26.257812 0.769531 L 26.257812 26.601562 L 0.429688 26.601562 L 0.429688 0.769531 Z M 26.257812 0.769531 " fill-opacity="1" fill-rule="nonzero"/></g></g></g></g></g></g><g clip-path="url(#98cd37cc55)"><g transform="matrix(1, 0, 0, 1, 0, 268)"><g clip-path="url(#cce2174a8b)"><g clip-path="url(#8083287e33)"><path fill="#2b2a28" d="M -6.128906 0.769531 L 101.128906 0.769531 L 101.128906 124.785156 L -6.128906 124.785156 Z M -6.128906 0.769531 " fill-opacity="1" fill-rule="nonzero"/></g></g></g></g><g clip-path="url(#c4a661a029)"><g transform="matrix(1, 0, 0, 1, 0, 330)"><g clip-path="url(#87471bd514)"><g clip-path="url(#0425a1c56e)"><path fill="#2b2a28" d="M -11.265625 0.785156 L 314.796875 0.785156 L 314.796875 124.8125 L -11.265625 124.8125 Z M -11.265625 0.785156 " fill-opacity="1" fill-rule="nonzero"/></g></g></g></g><g clip-path="url(#058de49cb6)"><g transform="matrix(1, 0, 0, 1, 100, 279)"><g clip-path="url(#e03a365160)"><g clip-path="url(#730841f54d)"><path fill="#2b2a28" d="M 0.371094 0.230469 L 20.246094 0.230469 L 20.246094 33.769531 L 0.371094 33.769531 Z M 0.371094 0.230469 " fill-opacity="1" fill-rule="nonzero"/></g></g></g></g><g clip-path="url(#096985c8f1)"><g transform="matrix(1, 0, 0, 1, 100, 293)"><g clip-path="url(#dd00fe9b4f)"><g clip-path="url(#d82e4f70c5)"><path fill="#2b2a28" d="M 0.371094 0.839844 L 26.269531 0.839844 L 26.269531 46.46875 L 0.371094 46.46875 Z M 0.371094 0.839844 " fill-opacity="1" fill-rule="nonzero"/></g></g></g></g></svg>